<svg xmlns="http://www.w3.org/2000/svg" xlink="http://www.w3.org/1999/xlink" width="0" height="0" style="display:none;"><symbol viewBox="0 0 24 24" id="search-2-line"><path fill="none" d="M0 0h24v24H0z"/><path d="M11 2c4.968 0 9 4.032 9 9s-4.032 9-9 9-9-4.032-9-9 4.032-9 9-9zm0 16c3.867 0 7-3.133 7-7 0-3.868-3.133-7-7-7-3.868 0-7 3.132-7 7 0 3.867 3.132 7 7 7zm8.485.071l2.829 2.828-1.415 1.415-2.828-2.829 1.414-1.414z"/></symbol><symbol viewBox="0 0 24 24" id="arrow-down-s-line"><path fill="none" d="M0 0h24v24H0z"/><path d="M12 13.172l4.95-4.95 1.414 1.414L12 16 5.636 9.636 7.05 8.222z"/></symbol><symbol viewBox="0 0 24 24" id="arrow-up-s-line"><path fill="none" d="M0 0h24v24H0z"/><path d="M12 10.828l-4.95 4.95-1.414-1.414L12 8l6.364 6.364-1.414 1.414z"/></symbol><symbol viewBox="0 0 24 24" id="subtract-line"><path fill="none" d="M0 0h24v24H0z"/><path d="M5 11h14v2H5z"/></symbol><symbol viewBox="0 0 24 24" id="add-line"><path fill="none" d="M0 0h24v24H0z"/><path d="M11 11V5h2v6h6v2h-6v6h-2v-6H5v-2z"/></symbol><symbol viewBox="0 0 24 24" id="settings-3-line"><path fill="none" d="M0 0h24v24H0z"/><path d="M3.34 17a10.018 10.018 0 0 1-.978-2.326 3 3 0 0 0 .002-5.347A9.99 9.99 0 0 1 4.865 4.99a3 3 0 0 0 4.631-2.674 9.99 9.99 0 0 1 5.007.002 3 3 0 0 0 4.632 2.672c.579.59 1.093 1.261 1.525 2.01.433.749.757 1.53.978 2.326a3 3 0 0 0-.002 5.347 9.99 9.99 0 0 1-2.501 4.337 3 3 0 0 0-4.631 2.674 9.99 9.99 0 0 1-5.007-.002 3 3 0 0 0-4.632-2.672A10.018 10.018 0 0 1 3.34 17zm5.66.196a4.993 4.993 0 0 1 2.25 2.77c.499.047 1 .048 1.499.001A4.993 4.993 0 0 1 15 17.197a4.993 4.993 0 0 1 3.525-.565c.29-.408.54-.843.748-1.298A4.993 4.993 0 0 1 18 12c0-1.26.47-2.437 1.273-3.334a8.126 8.126 0 0 0-.75-1.298A4.993 4.993 0 0 1 15 6.804a4.993 4.993 0 0 1-2.25-2.77c-.499-.047-1-.048-1.499-.001A4.993 4.993 0 0 1 9 6.803a4.993 4.993 0 0 1-3.525.565 7.99 7.99 0 0 0-.748 1.298A4.993 4.993 0 0 1 6 12c0 1.26-.47 2.437-1.273 3.334a8.126 8.126 0 0 0 .75 1.298A4.993 4.993 0 0 1 9 17.196zM12 15a3 3 0 1 1 0-6 3 3 0 0 1 0 6zm0-2a1 1 0 1 0 0-2 1 1 0 0 0 0 2z"/></symbol><symbol viewBox="0 0 24 24" id="code-s-slash-line"><path fill="none" d="M0 0h24v24H0z"/><path d="M24 12l-5.657 5.657-1.414-1.414L21.172 12l-4.243-4.243 1.414-1.414L24 12zM2.828 12l4.243 4.243-1.414 1.414L0 12l5.657-5.657L7.07 7.757 2.828 12zm6.96 9H7.66l6.552-18h2.128L9.788 21z"/></symbol><symbol viewBox="0 0 24 24" id="menu-line"><path fill="none" d="M0 0h24v24H0z"/><path d="M3 4h18v2H3V4zm0 7h18v2H3v-2zm0 7h18v2H3v-2z"/></symbol><symbol viewBox="0 0 24 24" id="link-m"><path fill="none" d="M0 0h24v24H0z"/><path d="M17.657 14.828l-1.414-1.414L17.657 12A4 4 0 1 0 12 6.343l-1.414 1.414-1.414-1.414 1.414-1.414a6 6 0 0 1 8.485 8.485l-1.414 1.414zm-2.829 2.829l-1.414 1.414a6 6 0 1 1-8.485-8.485l1.414-1.414 1.414 1.414L6.343 12A4 4 0 1 0 12 17.657l1.414-1.414 1.414 1.414zm0-9.9l1.415 1.415-7.071 7.07-1.415-1.414 7.071-7.07z"/></symbol><symbol viewBox="0 0 24 24" id="information-line"><path fill="none" d="M0 0h24v24H0z"/><path d="M12 22C6.477 22 2 17.523 2 12S6.477 2 12 2s10 4.477 10 10-4.477 10-10 10zm0-2a8 8 0 1 0 0-16 8 8 0 0 0 0 16zM11 7h2v2h-2V7zm0 4h2v6h-2v-6z"/></symbol><symbol viewBox="0 0 24 24" id="error-warning-line"><path fill="none" d="M0 0h24v24H0z"/><path d="M12 22C6.477 22 2 17.523 2 12S6.477 2 12 2s10 4.477 10 10-4.477 10-10 10zm0-2a8 8 0 1 0 0-16 8 8 0 0 0 0 16zm-1-5h2v2h-2v-2zm0-8h2v6h-2V7z"/></symbol><symbol viewBox="0 0 24 24" id="alert-line"><path fill="none" d="M0 0h24v24H0z"/><path d="M12.866 3l9.526 16.5a1 1 0 0 1-.866 1.5H2.474a1 1 0 0 1-.866-1.5L11.134 3a1 1 0 0 1 1.732 0zm-8.66 16h15.588L12 5.5 4.206 19zM11 16h2v2h-2v-2zm0-7h2v5h-2V9z"/></symbol><symbol viewBox="0 0 24 24" id="double-quotes-l"><path fill="none" d="M0 0h24v24H0z"/><path d="M4.583 17.321C3.553 16.227 3 15 3 13.011c0-3.5 2.457-6.637 6.03-8.188l.893 1.378c-3.335 1.804-3.987 4.145-4.247 5.621.537-.278 1.24-.375 1.929-.311 1.804.167 3.226 1.648 3.226 3.489a3.5 3.5 0 0 1-3.5 3.5c-1.073 0-2.099-.49-2.748-1.179zm10 0C13.553 16.227 13 15 13 13.011c0-3.5 2.457-6.637 6.03-8.188l.893 1.378c-3.335 1.804-3.987 4.145-4.247 5.621.537-.278 1.24-.375 1.929-.311 1.804.167 3.226 1.648 3.226 3.489a3.5 3.5 0 0 1-3.5 3.5c-1.073 0-2.099-.49-2.748-1.179z"/></symbol><symbol viewBox="0 0 24 24" id="close-line"><path fill="none" d="M0 0h24v24H0z"/><path d="M12 10.586l4.95-4.95 1.414 1.414-4.95 4.95 4.95 4.95-1.414 1.414-4.95-4.95-4.95 4.95-1.414-1.414 4.95-4.95-4.95-4.95L7.05 5.636z"/></symbol></svg>